<svg xmlns="http://www.w3.org/2000/svg" viewBox="-20 -16 340 490"><defs><linearGradient id="leaf" x2="1" y2="1"><stop stop-color="#fff0c4"/><stop offset=".5" stop-color="#edc87e"/><stop offset="1" stop-color="#af7630"/></linearGradient><filter id="shadow" x="-50%" y="-50%" width="200%" height="200%"><feDropShadow dx="3" dy="5" stdDeviation="3" flood-color="#010713" flood-opacity=".6"/></filter><filter id="glow" x="-100%" y="-100%" width="300%" height="300%"><feGaussianBlur stdDeviation="3" result="blur"/><feMerge><feMergeNode in="blur"/><feMergeNode in="SourceGraphic"/></feMerge></filter></defs><g filter="url(#shadow)"><path d="M10 446V34Q10 12 32 12H268Q290 12 290 34V446" fill="none" stroke="#edc87e" stroke-width="3"/><g transform="translate(10 28) rotate(-90)"><path d="M0-12 3-3 12 0 3 3 0 12-3 3-12 0-3-3Z" fill="url(#leaf)"/><circle cx="12" cy="14" r="2" fill="#c59ae9"/></g><g transform="translate(14.77038431953045 28) rotate(-75)"><path d="M0-12 3-3 12 0 3 3 0 12-3 3-12 0-3-3Z" fill="url(#leaf)"/><circle cx="12" cy="14" r="2" fill="#c59ae9"/></g><g transform="translate(28.756443470178567 12) rotate(-60)"><path d="M0-12 3-3 12 0 3 3 0 12-3 3-12 0-3-3Z" fill="url(#leaf)"/><circle cx="12" cy="14" r="2" fill="#c59ae9"/></g><g transform="translate(51.00505063388333 12) rotate(-45)"><path d="M0-12 3-3 12 0 3 3 0 12-3 3-12 0-3-3Z" fill="url(#leaf)"/><circle cx="12" cy="14" r="2" fill="#c59ae9"/></g><g transform="translate(79.99999999999994 12) rotate(-30)"><path d="M0-12 3-3 12 0 3 3 0 12-3 3-12 0-3-3Z" fill="url(#leaf)"/><circle cx="12" cy="14" r="2" fill="#c59ae9"/></g><g transform="translate(113.76533368564711 12) rotate(-15)"><path d="M0-12 3-3 12 0 3 3 0 12-3 3-12 0-3-3Z" fill="url(#leaf)"/><circle cx="12" cy="14" r="2" fill="#c59ae9"/></g><g transform="translate(149.99999999999997 12) rotate(0)"><path d="M0-12 3-3 12 0 3 3 0 12-3 3-12 0-3-3Z" fill="url(#leaf)"/><circle cx="12" cy="14" r="2" fill="#c59ae9"/></g><g transform="translate(186.23466631435284 12) rotate(15)"><path d="M0-12 3-3 12 0 3 3 0 12-3 3-12 0-3-3Z" fill="url(#leaf)"/><circle cx="12" cy="14" r="2" fill="#c59ae9"/></g><g transform="translate(219.9999999999999 12) rotate(30)"><path d="M0-12 3-3 12 0 3 3 0 12-3 3-12 0-3-3Z" fill="url(#leaf)"/><circle cx="12" cy="14" r="2" fill="#c59ae9"/></g><g transform="translate(248.99494936611663 12) rotate(45)"><path d="M0-12 3-3 12 0 3 3 0 12-3 3-12 0-3-3Z" fill="url(#leaf)"/><circle cx="12" cy="14" r="2" fill="#c59ae9"/></g><g transform="translate(271.24355652982143 12) rotate(60)"><path d="M0-12 3-3 12 0 3 3 0 12-3 3-12 0-3-3Z" fill="url(#leaf)"/><circle cx="12" cy="14" r="2" fill="#c59ae9"/></g><g transform="translate(285.2296156804696 28) rotate(75)"><path d="M0-12 3-3 12 0 3 3 0 12-3 3-12 0-3-3Z" fill="url(#leaf)"/><circle cx="12" cy="14" r="2" fill="#c59ae9"/></g><g transform="translate(290 28) rotate(90)"><path d="M0-12 3-3 12 0 3 3 0 12-3 3-12 0-3-3Z" fill="url(#leaf)"/><circle cx="12" cy="14" r="2" fill="#c59ae9"/></g><g transform="translate(10 145) rotate(-20)"><path d="M0-12 3-3 12 0 3 3 0 12-3 3-12 0-3-3Z" fill="url(#leaf)"/><circle cx="12" cy="14" r="2" fill="#c59ae9"/></g><g transform="translate(290 145) rotate(160)"><path d="M0-12 3-3 12 0 3 3 0 12-3 3-12 0-3-3Z" fill="url(#leaf)"/><circle cx="12" cy="14" r="2" fill="#c59ae9"/></g><g transform="translate(10 188) rotate(-20)"><path d="M0-12 3-3 12 0 3 3 0 12-3 3-12 0-3-3Z" fill="url(#leaf)"/><circle cx="12" cy="14" r="2" fill="#c59ae9"/></g><g transform="translate(290 188) rotate(160)"><path d="M0-12 3-3 12 0 3 3 0 12-3 3-12 0-3-3Z" fill="url(#leaf)"/><circle cx="12" cy="14" r="2" fill="#c59ae9"/></g><g transform="translate(10 231) rotate(-20)"><path d="M0-12 3-3 12 0 3 3 0 12-3 3-12 0-3-3Z" fill="url(#leaf)"/><circle cx="12" cy="14" r="2" fill="#c59ae9"/></g><g transform="translate(290 231) rotate(160)"><path d="M0-12 3-3 12 0 3 3 0 12-3 3-12 0-3-3Z" fill="url(#leaf)"/><circle cx="12" cy="14" r="2" fill="#c59ae9"/></g><g transform="translate(10 274) rotate(-20)"><path d="M0-12 3-3 12 0 3 3 0 12-3 3-12 0-3-3Z" fill="url(#leaf)"/><circle cx="12" cy="14" r="2" fill="#c59ae9"/></g><g transform="translate(290 274) rotate(160)"><path d="M0-12 3-3 12 0 3 3 0 12-3 3-12 0-3-3Z" fill="url(#leaf)"/><circle cx="12" cy="14" r="2" fill="#c59ae9"/></g><g transform="translate(10 317) rotate(-20)"><path d="M0-12 3-3 12 0 3 3 0 12-3 3-12 0-3-3Z" fill="url(#leaf)"/><circle cx="12" cy="14" r="2" fill="#c59ae9"/></g><g transform="translate(290 317) rotate(160)"><path d="M0-12 3-3 12 0 3 3 0 12-3 3-12 0-3-3Z" fill="url(#leaf)"/><circle cx="12" cy="14" r="2" fill="#c59ae9"/></g><g transform="translate(10 360) rotate(-20)"><path d="M0-12 3-3 12 0 3 3 0 12-3 3-12 0-3-3Z" fill="url(#leaf)"/><circle cx="12" cy="14" r="2" fill="#c59ae9"/></g><g transform="translate(290 360) rotate(160)"><path d="M0-12 3-3 12 0 3 3 0 12-3 3-12 0-3-3Z" fill="url(#leaf)"/><circle cx="12" cy="14" r="2" fill="#c59ae9"/></g><g transform="translate(10 403) rotate(-20)"><path d="M0-12 3-3 12 0 3 3 0 12-3 3-12 0-3-3Z" fill="url(#leaf)"/><circle cx="12" cy="14" r="2" fill="#c59ae9"/></g><g transform="translate(290 403) rotate(160)"><path d="M0-12 3-3 12 0 3 3 0 12-3 3-12 0-3-3Z" fill="url(#leaf)"/><circle cx="12" cy="14" r="2" fill="#c59ae9"/></g><path d="M10 446q17 18 36-3M290 446q-17 18-36-3" fill="none" stroke="#edc87e" stroke-width="3"/></g></svg>